# xmcd
#
# Track frame offsets:
#	150
#	15466
#	36144
#	53738
#	72024
#	88202
#	104869
#	124734
#	142734
#	157599
#	172650
#	194153
#
# Disc length: 2790 seconds
#
# Revision: 1
# Processed by: cddbd v1.4PL0 Copyright (c) Steve Scherf et al.
# Submitted via: audiograbber 1.82.02
#
DISCID=970ae40c
DTITLE=Funda Arar - Sevda Yanýðý
DYEAR=2003
DGENRE=Pop
TTITLE0=Sevda Yanýðý
TTITLE1=Haberin Var mý?
TTITLE2=Roman
TTITLE3=Aþksýz Kal
TTITLE4=Kýrýk Düþler
TTITLE5=Özledim
TTITLE6=Yangýn Yeri
TTITLE7=Dönemem
TTITLE8=Geçse de Yýllar
TTITLE9=Maske
TTITLE10=Neyse
TTITLE11=Gün Gelecek
EXTD=
EXTT0=
EXTT1=
EXTT2=
EXTT3=
EXTT4=
EXTT5=
EXTT6=
EXTT7=
EXTT8=
EXTT9=
EXTT10=
EXTT11=
PLAYORDER=
